<?xml version="1.0" standalone="no"?>
<!DOCTYPE svg PUBLIC "-//W3C//DTD SVG 20010904//EN"
 "http://www.w3.org/TR/2001/REC-SVG-20010904/DTD/svg10.dtd">
<svg version="1.0" xmlns="http://www.w3.org/2000/svg"
 width="512.000000pt" height="512.000000pt" viewBox="0 0 512.000000 512.000000"
 preserveAspectRatio="xMidYMid meet">
<metadata>
Created by potrace 1.14, written by Peter Selinger 2001-2017
</metadata>
<g transform="translate(0.000000,512.000000) scale(0.100000,-0.100000)"
fill="#000000" stroke="none">
<path d="M3893 5104 c-151 -40 -259 -141 -304 -283 -18 -58 -19 -95 -19 -502
l0 -440 -44 25 c-153 85 -331 71 -469 -37 -21 -16 -39 -28 -40 -26 -51 76 -96
121 -162 158 -169 95 -382 66 -517 -71 -29 -30 -58 -62 -63 -72 -10 -18 -15
-16 -65 22 -68 51 -124 72 -216 79 -172 13 -319 -69 -401 -223 -42 -80 -59
-166 -62 -314 -1 -69 -4 -126 -6 -128 -1 -2 -19 30 -40 70 -67 134 -205 325
-280 390 -131 115 -374 140 -540 56 -68 -35 -110 -75 -142 -135 -73 -136 -49
-264 88 -478 141 -220 265 -594 324 -977 15 -92 19 -142 30 -370 5 -107 6
-118 41 -298 11 -59 70 -212 115 -297 97 -186 259 -368 429 -482 l86 -58 1
-171 c1 -202 7 -250 39 -317 32 -68 74 -116 138 -159 85 -56 131 -64 388 -65
257 -2 281 3 296 62 l8 32 92 1 c79 1 92 -1 92 -15 0 -29 43 -70 79 -76 59
-10 111 27 111 79 0 9 24 12 96 12 l96 -1 15 -37 c23 -58 40 -60 428 -56 l340
3 58 27 c32 15 69 36 83 47 15 12 40 19 67 20 68 0 175 47 200 88 4 6 13 18
20 25 18 18 45 77 52 113 3 17 8 122 11 234 l6 205 58 82 c81 114 146 227 170
299 26 75 30 98 45 250 2 22 4 816 5 1765 1 1875 5 1764 -53 1818 -13 12 -39
27 -58 33 -43 12 -144 13 -187 0 -30 -9 -38 -6 -83 25 -27 20 -72 45 -100 55
-67 26 -188 32 -256 13z"/>
</g>
</svg>
